<?xml version="1.0" encoding="utf-8"?>
<!-- Generator: Adobe Illustrator 19.1.0, SVG Export Plug-In . SVG Version: 6.00 Build 0)  -->
<svg version="1.1" id="mark" xmlns="http://www.w3.org/2000/svg" xmlns:xlink="http://www.w3.org/1999/xlink" x="0px" y="0px"
	 viewBox="88.8 421.2 473.9 459.9" style="enable-background:new 88.8 421.2 473.9 459.9;" xml:space="preserve">
<style type="text/css">
	.st0{fill:#4E9D2D;}
</style>
<path class="st0" d="M291.5,645.5c0-89.7,43.8-167.4,174.2-167.4C465.6,568,406.5,645.5,291.5,645.5"/>
<path class="st0" d="M500.3,881.2c24.4,0,43.2-3.5,62.4-10.5c0-71-42.4-121.8-117.2-158.4c-57.2-28.7-127.7-43.6-192.1-43.6
	c28.2-84.6,7.6-189.7-19.7-247.4c-30.3,60.4-49.2,164-20.1,248.3c-57.1,4.2-102.4,29.1-121.6,61.9c-1.4,2.5-4.4,7.8-2.6,8.8
	c1.4,0.7,3.6-1.5,4.9-2.7c20.6-19.1,47.9-28.4,74.2-28.4c60.7,0,103.4,50.3,133.7,80.5C367.3,854.4,430.8,881.3,500.3,881.2"/>
</svg>
